<svg width="1364" height="183" viewBox="0 0 1364 183" fill="none" xmlns="http://www.w3.org/2000/svg">
<path d="M140.776 183C130.585 183 120.67 181.761 111.03 179.282C101.39 176.872 92.4389 173.773 84.1762 169.986C75.9824 166.199 68.7181 162.033 62.3834 157.489C56.1175 153.013 51.2287 148.744 47.7171 144.682C40.6938 142.616 34.2558 139.621 28.403 135.696C22.5503 131.702 17.5238 126.986 13.3236 121.546C9.1234 116.107 5.85275 110.047 3.51165 103.368C1.17055 96.6203 0 89.4593 0 81.8852C0 72.2454 1.79025 63.4663 5.37075 55.5478C8.95126 47.6294 13.8744 40.8816 20.1403 35.3042C26.4751 29.6581 33.9459 25.2857 42.5529 22.1872C51.2287 19.0887 60.5931 17.5394 70.6461 17.5394C80.699 17.5394 90.029 19.1575 98.636 22.3938C107.312 25.63 114.817 30.14 121.152 35.9239C127.487 41.639 132.444 48.4213 136.025 56.2708C139.674 64.1204 141.499 72.6585 141.499 81.8852C141.499 89.8036 140.294 97.2056 137.884 104.091C135.543 110.908 132.203 117.071 127.865 122.579C123.527 128.019 118.329 132.701 112.269 136.626C106.21 140.481 99.4967 143.373 92.1291 145.301C93.7128 148.951 96.0883 152.531 99.2557 156.043C102.423 159.623 106.141 162.825 110.41 165.648C114.748 168.471 119.499 170.744 124.663 172.465C129.828 174.186 135.198 175.047 140.776 175.047V183ZM33.2574 81.8852C33.2574 89.8725 34.0492 97.2745 35.6329 104.091C37.2166 110.839 39.5577 116.692 42.6562 121.649C45.7547 126.538 49.6106 130.394 54.224 133.217C58.8373 135.971 64.1736 137.383 70.2329 137.452C76.2923 136.832 81.663 135.111 86.3452 132.288C91.0274 129.396 94.9866 125.574 98.2228 120.823C101.459 116.003 103.903 110.323 105.556 103.781C107.277 97.24 108.138 89.9413 108.138 81.8852C108.138 74.0356 107.312 66.8402 105.659 60.2989C104.007 53.6887 101.597 48.0081 98.4294 43.2571C95.262 38.506 91.3372 34.8222 86.6551 32.2057C82.0417 29.5203 76.7054 28.1777 70.6461 28.1777C64.5179 28.1777 59.1127 29.5203 54.4305 32.2057C49.8172 34.8222 45.9268 38.506 42.7595 43.2571C39.661 48.0081 37.2854 53.6887 35.6329 60.2989C34.0492 66.8402 33.2574 74.0356 33.2574 81.8852Z" fill="#3A61E2"/>
<path d="M225.72 80.7491C225.72 75.9292 224.756 72.2454 222.828 69.6977C220.969 67.15 218.766 65.8762 216.218 65.8762C214.979 65.8762 213.567 66.1172 211.984 66.5992C210.4 67.0812 208.713 67.8042 206.923 68.7682C205.201 69.6633 203.411 70.765 201.552 72.0732C199.762 73.3126 198.006 74.7242 196.285 76.3079V145.301H167.572V51.1066H196.285V58.4398C200.622 55.2036 205.305 52.8625 210.331 51.4165C215.426 49.9017 220.487 49.1443 225.514 49.1443C229.37 49.1443 233.019 49.9017 236.462 51.4165C239.974 52.9313 243.038 54.997 245.654 57.6135C248.271 60.1612 250.336 63.1908 251.851 66.7025C253.435 70.1453 254.227 73.8635 254.227 77.8571V145.301H225.72V80.7491Z" fill="#3A61E2"/>
<path d="M329.256 96.5515C326.502 97.722 323.713 99.0992 320.89 100.683C318.067 102.198 315.519 103.885 313.247 105.744C310.975 107.603 309.116 109.565 307.67 111.631C306.293 113.697 305.604 115.866 305.604 118.138C305.604 119.928 305.845 121.649 306.327 123.302C306.809 124.886 307.429 126.297 308.186 127.537C309.013 128.707 309.942 129.671 310.975 130.429C312.008 131.117 313.109 131.461 314.28 131.461C316.552 131.461 318.893 130.738 321.303 129.292C323.713 127.846 326.364 126.056 329.256 123.922V96.5515ZM357.969 145.301H329.256V137.762C327.672 139.07 326.123 140.309 324.608 141.48C323.094 142.582 321.407 143.546 319.547 144.372C317.757 145.198 315.657 145.852 313.247 146.334C310.906 146.816 308.152 147.057 304.984 147.057C300.647 147.057 296.722 146.438 293.21 145.198C289.767 143.959 286.841 142.272 284.431 140.137C282.021 137.934 280.162 135.352 278.854 132.391C277.545 129.361 276.891 126.125 276.891 122.682C276.891 119.033 277.58 115.762 278.957 112.87C280.334 109.978 282.193 107.362 284.534 105.021C286.944 102.68 289.733 100.58 292.9 98.7204C296.137 96.8613 299.579 95.1744 303.229 93.6595C306.878 92.0759 310.631 90.6643 314.487 89.4249C318.411 88.1166 322.302 86.8428 326.158 85.6034L329.256 84.8804V75.4816C329.256 69.4911 328.086 65.2565 325.745 62.7777C323.472 60.23 320.443 58.9562 316.656 58.9562C314.383 58.9562 312.455 59.2661 310.872 59.8858C309.357 60.4366 308.117 61.2284 307.153 62.2613C306.258 63.2941 305.604 64.4991 305.191 65.8762C304.847 67.1845 304.675 68.596 304.675 70.1108C304.675 71.9011 304.468 73.6225 304.055 75.275C303.711 76.9276 303.057 78.408 302.093 79.7162C301.129 80.9556 299.786 81.954 298.064 82.7115C296.412 83.4689 294.277 83.8476 291.661 83.8476C287.598 83.8476 284.328 82.7115 281.849 80.4392C279.37 78.0981 278.131 75.2062 278.131 71.7634C278.131 68.4583 279.232 65.4286 281.436 62.6744C283.639 59.8513 286.634 57.4414 290.421 55.4446C294.209 53.3789 298.581 51.7952 303.539 50.6935C308.496 49.523 313.729 48.9377 319.238 48.9377C325.986 48.9377 331.804 49.5574 336.693 50.7968C341.581 51.9673 345.575 53.6887 348.674 55.961C351.841 58.1644 354.182 60.8497 355.697 64.0171C357.212 67.1845 357.969 70.7305 357.969 74.6553V145.301Z" fill="#3A61E2"/>
<path d="M438.338 17.455L495.867 142.532H475.004L456.309 101.734H403.945L384.63 142.532H374.302L433.277 17.455H438.338ZM407.559 93.7816H452.591L430.385 45.4448L407.559 93.7816Z" fill="#3A61E2"/>
<path d="M513.677 48.2335H532.372V67.4443C534.231 65.1032 536.296 62.6932 538.569 60.2144C540.91 57.6667 543.492 55.3601 546.315 53.2944C549.138 51.2287 552.237 49.5418 555.611 48.2335C558.984 46.9252 562.703 46.2711 566.765 46.2711C572.342 46.2711 577.403 47.4417 581.948 49.7828C586.492 52.1239 590.348 55.3256 593.516 59.3881C596.752 63.3818 599.231 68.064 600.952 73.4347C602.742 78.8055 603.637 84.5549 603.637 90.6831C603.637 98.4638 602.57 105.659 600.436 112.269C598.301 118.811 595.237 124.491 591.243 129.311C587.25 134.131 582.395 137.884 576.68 140.569C571.034 143.255 564.665 144.597 557.573 144.597C554.956 144.597 552.512 144.46 550.24 144.184C548.036 143.909 545.936 143.496 543.939 142.945C541.943 142.394 539.98 141.671 538.052 140.776C536.193 139.881 534.3 138.813 532.372 137.574V182.296H513.677V48.2335ZM532.372 117.124C532.372 119.947 532.991 122.598 534.231 125.077C535.47 127.555 537.192 129.724 539.395 131.583C541.667 133.443 544.318 134.923 547.348 136.025C550.446 137.057 553.855 137.574 557.573 137.574C561.085 137.574 564.39 136.679 567.488 134.889C570.587 133.098 573.272 130.585 575.544 127.349C577.817 124.113 579.607 120.222 580.915 115.678C582.292 111.064 582.981 106.004 582.981 100.495C582.981 93.5406 582.361 87.4813 581.122 82.3171C579.882 77.0841 578.161 72.7462 575.957 69.3034C573.823 65.8606 571.241 63.3129 568.211 61.6604C565.25 59.939 561.98 59.0783 558.399 59.0783C555.645 59.0783 553.028 59.4914 550.55 60.3177C548.071 61.144 545.73 62.2801 543.526 63.7261C541.323 65.1032 539.292 66.7213 537.433 68.5804C535.573 70.3706 533.887 72.2986 532.372 74.3643V117.124Z" fill="#3A61E2"/>
<path d="M627.645 48.2335H646.339V67.4443C648.198 65.1032 650.264 62.6932 652.536 60.2144C654.877 57.6667 657.459 55.3601 660.282 53.2944C663.105 51.2287 666.204 49.5418 669.578 48.2335C672.952 46.9252 676.67 46.2711 680.733 46.2711C686.31 46.2711 691.371 47.4417 695.915 49.7828C700.46 52.1239 704.316 55.3256 707.483 59.3881C710.719 63.3818 713.198 68.064 714.919 73.4347C716.71 78.8055 717.605 84.5549 717.605 90.6831C717.605 98.4638 716.538 105.659 714.403 112.269C712.269 118.811 709.204 124.491 705.211 129.311C701.217 134.131 696.363 137.884 690.648 140.569C685.002 143.255 678.632 144.597 671.54 144.597C668.924 144.597 666.479 144.46 664.207 144.184C662.004 143.909 659.904 143.496 657.907 142.945C655.91 142.394 653.948 141.671 652.02 140.776C650.161 139.881 648.267 138.813 646.339 137.574V182.296H627.645V48.2335ZM646.339 117.124C646.339 119.947 646.959 122.598 648.198 125.077C649.438 127.555 651.159 129.724 653.362 131.583C655.635 133.443 658.286 134.923 661.315 136.025C664.414 137.057 667.822 137.574 671.54 137.574C675.052 137.574 678.357 136.679 681.456 134.889C684.554 133.098 687.239 130.585 689.512 127.349C691.784 124.113 693.574 120.222 694.882 115.678C696.26 111.064 696.948 106.004 696.948 100.495C696.948 93.5406 696.328 87.4813 695.089 82.3171C693.85 77.0841 692.128 72.7462 689.925 69.3034C687.79 65.8606 685.208 63.3129 682.179 61.6604C679.218 59.939 675.947 59.0783 672.367 59.0783C669.612 59.0783 666.996 59.4914 664.517 60.3177C662.038 61.144 659.697 62.2801 657.494 63.7261C655.29 65.1032 653.259 66.7213 651.4 68.5804C649.541 70.3706 647.854 72.2986 646.339 74.3643V117.124Z" fill="#3A61E2"/>
<path d="M761.236 142.532H742.542V5.26747L755.865 0H761.236V142.532Z" fill="#3A61E2"/>
<path d="M800.529 0C801.975 0 803.352 0.240995 804.661 0.722986C806.038 1.20498 807.208 1.89354 808.172 2.78866C809.136 3.61493 809.894 4.61334 810.445 5.78389C811.064 6.88558 811.374 8.09056 811.374 9.39882C811.374 10.6382 811.064 11.8432 810.445 13.0137C809.894 14.1154 809.136 15.1139 808.172 16.009C807.208 16.8352 806.038 17.5238 804.661 18.0747C803.352 18.5566 801.975 18.7976 800.529 18.7976C799.083 18.7976 797.706 18.5566 796.398 18.0747C795.09 17.5238 793.954 16.8352 792.99 16.009C792.026 15.1139 791.234 14.1154 790.614 13.0137C790.063 11.8432 789.788 10.6382 789.788 9.39882C789.788 8.09056 790.063 6.88558 790.614 5.78389C791.234 4.61334 792.026 3.61493 792.99 2.78866C793.954 1.89354 795.09 1.20498 796.398 0.722986C797.706 0.240995 799.083 0 800.529 0ZM791.44 51.6419L804.557 46.2711H810.031V142.532H791.44V51.6419Z" fill="#3A61E2"/>
<path d="M879.277 144.597C873.08 144.597 867.296 143.392 861.925 140.982C856.555 138.503 851.838 135.164 847.775 130.964C843.782 126.695 840.614 121.737 838.273 116.091C836.001 110.445 834.865 104.385 834.865 97.913C834.865 90.8208 836.139 84.1418 838.686 77.8759C841.234 71.5412 844.711 66.0672 849.118 61.4538C853.525 56.7716 858.689 53.0878 864.611 50.4025C870.601 47.6482 876.97 46.2711 883.718 46.2711C889.02 46.2711 893.874 46.8564 898.281 48.0269C902.757 49.1975 906.613 50.7812 909.849 52.778C913.085 54.7748 915.598 57.1503 917.389 59.9046C919.179 62.6588 920.074 65.6196 920.074 68.787C920.074 70.2329 919.695 71.5756 918.938 72.815C918.249 74.0544 917.285 75.1561 916.046 76.1201C914.875 77.0152 913.533 77.7382 912.018 78.2891C910.572 78.8399 909.092 79.1153 907.577 79.1153C905.924 79.1153 904.409 78.8399 903.032 78.2891C901.655 77.6694 900.485 76.8775 899.521 75.9135C898.625 74.8807 897.902 73.7446 897.352 72.5052C896.87 71.2658 896.629 70.0264 896.629 68.787C896.629 66.5836 896.388 64.5523 895.906 62.6932C895.492 60.7653 894.666 59.1127 893.427 57.7356C892.256 56.3585 890.638 55.2912 888.573 54.5338C886.576 53.7075 883.994 53.2944 880.826 53.2944C876.557 53.2944 872.736 54.1551 869.362 55.8765C865.988 57.5979 863.13 59.939 860.789 62.8998C858.448 65.7917 856.658 69.2345 855.418 73.2282C854.179 77.1529 853.559 81.3531 853.559 85.8288C853.559 91.8192 854.317 97.5343 855.832 102.974C857.415 108.345 859.653 113.061 862.545 117.124C865.437 121.117 868.914 124.319 872.977 126.729C877.039 129.07 881.549 130.241 886.507 130.241C890.914 130.241 894.701 129.552 897.868 128.175C901.104 126.798 903.893 124.939 906.234 122.598C908.644 120.257 910.675 117.537 912.328 114.438C914.049 111.34 915.564 108.069 916.872 104.626L922.553 106.899C920.969 112.82 918.835 118.122 916.149 122.804C913.464 127.418 910.297 131.342 906.647 134.579C902.998 137.815 898.866 140.294 894.253 142.015C889.64 143.737 884.648 144.597 879.277 144.597Z" fill="#3A61E2"/>
<path d="M1016.07 142.532H997.272V129.621C995.069 131.342 992.9 133.098 990.766 134.889C988.631 136.61 986.324 138.194 983.846 139.64C981.367 141.086 978.612 142.256 975.583 143.151C972.553 144.115 969.042 144.597 965.048 144.597C961.33 144.597 957.956 143.978 954.926 142.738C951.965 141.568 949.452 139.949 947.386 137.884C945.321 135.749 943.703 133.236 942.532 130.344C941.43 127.452 940.88 124.354 940.88 121.049C940.88 116.986 941.671 113.337 943.255 110.1C944.908 106.864 947.111 103.972 949.865 101.425C952.688 98.8081 955.924 96.5014 959.574 94.5046C963.292 92.5078 967.251 90.7175 971.451 89.1339C975.652 87.5502 979.955 86.1731 984.362 85.0025C988.769 83.7631 993.072 82.5926 997.272 81.4909V75.6037C997.272 71.3346 996.825 67.7541 995.93 64.8622C995.103 61.9014 993.898 59.5259 992.315 57.7356C990.731 55.8765 988.803 54.5682 986.531 53.8108C984.328 52.9846 981.814 52.5714 978.991 52.5714C975.824 52.5714 973.242 52.9846 971.245 53.8108C969.248 54.6371 967.664 55.7388 966.494 57.1159C965.392 58.4242 964.635 59.939 964.222 61.6604C963.808 63.3129 963.602 65.0343 963.602 66.8246C963.602 68.4771 963.464 70.0608 963.189 71.5756C962.913 73.0904 962.431 74.4331 961.743 75.6037C961.054 76.7742 960.09 77.7038 958.851 78.3923C957.68 79.0809 956.165 79.4252 954.306 79.4252C951.414 79.4252 949.039 78.3923 947.18 76.3267C945.39 74.1921 944.494 71.5412 944.494 68.3738C944.494 65.2753 945.493 62.3834 947.49 59.698C949.555 56.9438 952.31 54.6027 955.752 52.6747C959.264 50.6779 963.326 49.1286 967.94 48.0269C972.553 46.8564 977.408 46.2711 982.503 46.2711C988.7 46.2711 993.933 46.8908 998.202 48.1302C1002.47 49.3008 1005.91 50.9877 1008.53 53.1911C1011.22 55.3256 1013.14 57.9422 1014.31 61.0407C1015.48 64.1392 1016.07 67.582 1016.07 71.3691V142.532ZM997.272 87.5846C993.21 88.824 988.975 90.4077 984.569 92.3356C980.162 94.1948 976.099 96.3293 972.381 98.7392C968.663 101.149 965.599 103.835 963.189 106.795C960.779 109.687 959.574 112.786 959.574 116.091C959.574 118.363 959.987 120.532 960.813 122.598C961.708 124.663 962.844 126.488 964.222 128.072C965.668 129.587 967.286 130.826 969.076 131.79C970.935 132.685 972.863 133.133 974.86 133.133C976.994 133.133 978.991 132.857 980.85 132.306C982.778 131.756 984.637 131.033 986.428 130.137C988.218 129.174 990.008 128.072 991.798 126.832C993.589 125.524 995.413 124.181 997.272 122.804V87.5846Z" fill="#3A61E2"/>
<path d="M1097.71 130.551C1095.23 134.889 1091.89 138.331 1087.69 140.879C1083.56 143.358 1078.46 144.597 1072.41 144.597C1069.24 144.597 1066.48 144.046 1064.14 142.945C1061.8 141.912 1059.87 140.431 1058.36 138.503C1056.84 136.576 1055.71 134.269 1054.95 131.583C1054.26 128.898 1053.92 125.903 1053.92 122.598V56.1863H1037.6V51.5386C1042.83 51.5386 1047.14 50.609 1050.51 48.7499C1053.95 46.822 1056.74 44.2399 1058.88 41.0036C1061.08 37.6986 1062.8 33.9115 1064.04 29.6424C1065.28 25.3045 1066.35 20.76 1067.24 16.009H1072.61V48.2335H1093.78V56.1863H1072.61V122.598C1072.61 125.421 1073.58 127.831 1075.5 129.828C1077.5 131.756 1079.94 132.72 1082.84 132.72C1084.97 132.72 1086.9 132.203 1088.62 131.17C1090.34 130.137 1091.82 128.864 1093.06 127.349L1097.71 130.551Z" fill="#3A61E2"/>
<path d="M1125.44 0C1126.88 0 1128.26 0.240995 1129.57 0.722986C1130.94 1.20498 1132.11 1.89354 1133.08 2.78866C1134.04 3.61493 1134.8 4.61334 1135.35 5.78389C1135.97 6.88558 1136.28 8.09056 1136.28 9.39882C1136.28 10.6382 1135.97 11.8432 1135.35 13.0137C1134.8 14.1154 1134.04 15.1139 1133.08 16.009C1132.11 16.8352 1130.94 17.5238 1129.57 18.0747C1128.26 18.5566 1126.88 18.7976 1125.44 18.7976C1123.99 18.7976 1122.61 18.5566 1121.3 18.0747C1120 17.5238 1118.86 16.8352 1117.9 16.009C1116.93 15.1139 1116.14 14.1154 1115.52 13.0137C1114.97 11.8432 1114.69 10.6382 1114.69 9.39882C1114.69 8.09056 1114.97 6.88558 1115.52 5.78389C1116.14 4.61334 1116.93 3.61493 1117.9 2.78866C1118.86 1.89354 1120 1.20498 1121.3 0.722986C1122.61 0.240995 1123.99 0 1125.44 0ZM1116.35 51.6419L1129.46 46.2711H1134.94V142.532H1116.35V51.6419Z" fill="#3A61E2"/>
<path d="M1210.07 144.597C1202.84 144.597 1196.16 143.358 1190.03 140.879C1183.97 138.331 1178.71 134.889 1174.23 130.551C1169.82 126.144 1166.38 121.049 1163.9 115.265C1161.42 109.412 1160.18 103.18 1160.18 96.5703C1160.18 89.6158 1161.42 83.109 1163.9 77.0497C1166.38 70.9215 1169.82 65.5852 1174.23 61.0407C1178.71 56.4962 1183.97 52.9157 1190.03 50.2992C1196.16 47.6138 1202.84 46.2711 1210.07 46.2711C1217.23 46.2711 1223.84 47.4761 1229.9 49.886C1236.03 52.296 1241.3 55.6011 1245.7 59.8013C1250.18 64.0015 1253.66 68.9247 1256.13 74.5708C1258.61 80.1482 1259.85 86.173 1259.85 92.6455C1259.85 99.8065 1258.61 106.554 1256.13 112.889C1253.66 119.155 1250.18 124.629 1245.7 129.311C1241.3 133.993 1236.03 137.712 1229.9 140.466C1223.84 143.22 1217.23 144.597 1210.07 144.597ZM1213.58 137.574C1217.3 137.574 1220.67 136.644 1223.7 134.785C1226.8 132.857 1229.45 130.31 1231.66 127.142C1233.93 123.906 1235.68 120.188 1236.92 115.988C1238.16 111.719 1238.78 107.209 1238.78 102.457C1238.78 95.6407 1238.2 89.2371 1237.03 83.2467C1235.86 77.2562 1233.96 72.0576 1231.35 67.6508C1228.73 63.1752 1225.29 59.6636 1221.02 57.1159C1216.82 54.5682 1211.65 53.2944 1205.53 53.2944C1202.36 53.2944 1199.29 54.224 1196.33 56.0831C1193.44 57.8733 1190.86 60.3521 1188.59 63.5195C1186.31 66.6869 1184.49 70.3706 1183.11 74.5708C1181.8 78.7711 1181.15 83.2467 1181.15 87.9977C1181.15 94.8833 1181.87 101.356 1183.32 107.415C1184.77 113.406 1186.87 118.639 1189.62 123.114C1192.44 127.59 1195.85 131.136 1199.84 133.752C1203.91 136.3 1208.49 137.574 1213.58 137.574Z" fill="#3A61E2"/>
<path d="M1284.27 48.2335H1302.97V65.4819C1308.68 59.0094 1314.6 54.1895 1320.73 51.0222C1326.86 47.8548 1333.13 46.2711 1339.53 46.2711C1342.84 46.2711 1345.9 47.0285 1348.72 48.5434C1351.61 50.0582 1354.13 52.1239 1356.26 54.7404C1358.47 57.288 1360.19 60.3177 1361.43 63.8293C1362.67 67.2721 1363.29 70.9559 1363.29 74.8807V142.532H1344.49V77.9792C1344.49 71.7133 1343.08 66.9967 1340.25 63.8293C1337.5 60.662 1333.92 59.0783 1329.51 59.0783C1327.51 59.0783 1325.41 59.4226 1323.21 60.1111C1321.01 60.7308 1318.74 61.626 1316.39 62.7965C1314.12 63.9671 1311.85 65.3786 1309.58 67.0311C1307.31 68.6837 1305.1 70.5428 1302.97 72.6085V142.532H1284.27V48.2335Z" fill="#3A61E2"/>
</svg>
